<svg xmlns="http://www.w3.org/2000/svg" data-name="Layer 1" viewBox="0 0 100
125" x="0px" y="0px"><title>Artboard 14</title><g><path
d="M30,82H70A10,10,0,0,0,80,72V42.15a8.26,8.26,0,0,0-3.46-6.73L54.94,19.69l-.13-.1-.14-.09a8.42,8.42,0,0,0-9.34,0l-.14.09-.13.1L23.46,35.42A8.26,8.26,0,0,0,20,42.15V72A10,10,0,0,0,30,82ZM28,42.15a.28.28,0,0,1,.12-.23L49.77,26.15a.42.42,0,0,1,.46,0L71.88,41.92a.28.28,0,0,1,.12.23V72a2,2,0,0,1-2,2H30a2,2,0,0,1-2-2Z"/><circle
cx="40" cy="48" r="4"/><circle cx="60" cy="48" r="4"/><path
d="M42,60a8,8,0,1,0,16,0,7.92,7.92,0,0,0-1.11-4H43.11A7.92,7.92,0,0,0,42,60Z"/></g><text
x="0" y="115" fill="#000000" font-size="5px" font-weight="bold"
font-family="'Helvetica Neue', Helvetica, Arial-Unicode, Arial,
Sans-serif">Created by Gregor Cresnar</text><text x="0" y="120" fill="#000000"
font-size="5px" font-weight="bold" font-family="'Helvetica Neue', Helvetica,
Arial-Unicode, Arial, Sans-serif">from the Noun Project</text></svg>
