<svg width="0" height="0" class="hidden">
  <symbol fill="none" xmlns="http://www.w3.org/2000/svg" viewBox="0 0 24 24" id="3d_rotation">
    <g id="3d_rotation" clip-path="url(#clip0_2403_6070)">
      <path id="Vector" d="M7.52499 21.48C4.25499 19.94 1.91499 16.76 1.55499 13H0.0549927C0.564993 19.16 5.71499 24 12.005 24L12.665 23.97L8.85499 20.16L7.52499 21.48ZM8.41499 14.96C8.22499 14.96 8.04499 14.93 7.89499 14.88C7.73499 14.82 7.60499 14.75 7.49499 14.64C7.38499 14.54 7.29499 14.42 7.23499 14.27C7.17499 14.13 7.14499 13.97 7.14499 13.8H5.84499C5.84499 14.16 5.91499 14.48 6.05499 14.75C6.19499 15.02 6.38499 15.25 6.61499 15.44C6.85499 15.62 7.12499 15.76 7.43499 15.85C7.73499 15.95 8.05499 16 8.39499 16C8.76499 16 9.11499 15.95 9.42499 15.85C9.74499 15.75 10.025 15.6 10.255 15.41C10.485 15.22 10.675 14.98 10.805 14.69C10.935 14.4 11.005 14.08 11.005 13.72C11.005 13.53 10.985 13.34 10.935 13.16C10.885 12.98 10.815 12.81 10.705 12.65C10.605 12.49 10.465 12.35 10.305 12.22C10.135 12.09 9.93499 11.99 9.69499 11.91C9.89499 11.82 10.065 11.71 10.215 11.58C10.365 11.45 10.485 11.31 10.585 11.16C10.685 11.01 10.755 10.86 10.805 10.7C10.855 10.54 10.875 10.38 10.875 10.22C10.875 9.86 10.815 9.54 10.695 9.26C10.575 8.98 10.405 8.75 10.185 8.57C9.98499 8.38 9.71499 8.24 9.41499 8.14C9.10499 8.05 8.76499 8 8.39499 8C8.03499 8 7.70499 8.05 7.39499 8.16C7.09499 8.27 6.82499 8.42 6.60499 8.61C6.39499 8.8 6.22499 9.02 6.09499 9.28C5.97499 9.54 5.91499 9.82 5.91499 10.13H7.21499C7.21499 9.96 7.24499 9.81 7.30499 9.68C7.36499 9.55 7.44499 9.43 7.55499 9.34C7.66499 9.25 7.78499 9.17 7.93499 9.12C8.08499 9.07 8.23499 9.04 8.41499 9.04C8.81499 9.04 9.11499 9.14 9.30499 9.35C9.49499 9.55 9.59499 9.84 9.59499 10.21C9.59499 10.39 9.56499 10.55 9.51499 10.7C9.46499 10.85 9.37499 10.97 9.26499 11.07C9.15499 11.17 9.01499 11.25 8.85499 11.31C8.69499 11.37 8.49499 11.4 8.27499 11.4H7.50499V12.43H8.27499C8.49499 12.43 8.69499 12.45 8.87499 12.5C9.05499 12.55 9.20499 12.63 9.32499 12.73C9.44499 12.84 9.54499 12.97 9.61499 13.13C9.68499 13.29 9.71499 13.48 9.71499 13.7C9.71499 14.11 9.59499 14.42 9.36499 14.63C9.13499 14.86 8.81499 14.96 8.41499 14.96ZM16.965 9.04C16.645 8.71 16.265 8.45 15.825 8.27C15.385 8.09 14.895 8 14.355 8H11.995V16H14.295C14.845 16 15.355 15.91 15.805 15.73C16.255 15.55 16.645 15.3 16.965 14.97C17.285 14.64 17.535 14.24 17.705 13.78C17.875 13.31 17.965 12.79 17.965 12.21V11.81C17.965 11.23 17.875 10.71 17.705 10.24C17.535 9.77 17.285 9.37 16.965 9.04ZM16.575 12.2C16.575 12.62 16.525 12.99 16.435 13.33C16.335 13.66 16.195 13.95 16.005 14.18C15.815 14.41 15.575 14.59 15.295 14.71C15.005 14.83 14.675 14.89 14.305 14.89H13.395V9.12H14.365C15.085 9.12 15.635 9.35 16.005 9.81C16.385 10.27 16.575 10.93 16.575 11.8V12.2ZM12.005 0L11.345 0.03L15.155 3.84L16.485 2.51C19.755 4.06 22.095 7.23 22.445 10.99H23.945C23.445 4.84 18.295 0 12.005 0Z" fill="black"></path>
    </g>
    <defs>
      <clipPath id="clip0_2403_6070">
        <rect width="24" height="24" fill="white"></rect>
      </clipPath>
    </defs>
  </symbol>
  <symbol fill="none" xmlns="http://www.w3.org/2000/svg" viewBox="0 0 24 24" id="123">
    <g id="123">
      <path id="Vector" d="M7.25 15H5.75V10.5H4.25V9H7.25V15ZM13.75 13.5H10.75V12.5H12.75C13.3 12.5 13.75 12.05 13.75 11.5V10C13.75 9.45 13.3 9 12.75 9H9.25V10.5H12.25V11.5H10.25C9.7 11.5 9.25 11.95 9.25 12.5V15H13.75V13.5ZM19.75 14V10C19.75 9.45 19.3 9 18.75 9H15.25V10.5H18.25V11.5H16.25V12.5H18.25V13.5H15.25V15H18.75C19.3 15 19.75 14.55 19.75 14Z" fill="black"></path>
    </g>
  </symbol>
  <symbol fill="none" xmlns="http://www.w3.org/2000/svg" viewBox="0 0 24 24" id="abc">
    <g id="abc">
      <path id="Vector" d="M21 11H19.5V10.5H17.5V13.5H19.5V13H21V14C21 14.55 20.55 15 20 15H17C16.45 15 16 14.55 16 14V10C16 9.45 16.45 9 17 9H20C20.55 9 21 9.45 21 10V11ZM8 10V15H6.5V13.5H4.5V15H3V10C3 9.45 3.45 9 4 9H7C7.55 9 8 9.45 8 10ZM6.5 10.5H4.5V12H6.5V10.5ZM13.5 12C14.05 12 14.5 12.45 14.5 13V14C14.5 14.55 14.05 15 13.5 15H9.5V9H13.5C14.05 9 14.5 9.45 14.5 10V11C14.5 11.55 14.05 12 13.5 12ZM11 10.5V11.25H13V10.5H11ZM13 12.75H11V13.5H13V12.75Z" fill="black"></path>
    </g>
  </symbol>
  <symbol fill="none" xmlns="http://www.w3.org/2000/svg" viewBox="0 0 24 24" id="accessibility">
    <g id="accessibility">
      <path id="Vector" d="M12 2C13.1 2 14 2.9 14 4C14 5.1 13.1 6 12 6C10.9 6 10 5.1 10 4C10 2.9 10.9 2 12 2ZM21 9H15V22H13V16H11V22H9V9H3V7H21V9Z" fill="black"></path>
    </g>
  </symbol>
  <symbol fill="none" xmlns="http://www.w3.org/2000/svg" viewBox="0 0 24 24" id="accessible">
    <g id="accessible">
      <g id="Vector">
        <path d="M12 6C13.1046 6 14 5.10457 14 4C14 2.89543 13.1046 2 12 2C10.8954 2 10 2.89543 10 4C10 5.10457 10.8954 6 12 6Z" fill="black"></path>
        <path d="M19 13V11C17.46 11.02 15.91 10.25 14.93 9.17L13.64 7.74C13.47 7.55 13.26 7.4 13.03 7.29C13.02 7.29 13.02 7.28 13.01 7.28H13C12.65 7.08 12.25 6.98 11.81 7.02C10.76 7.11 10 8.04 10 9.09V15C10 16.1 10.9 17 12 17H17V22H19V16.5C19 15.4 18.1 14.5 17 14.5H14V11.05C15.29 12.12 17.25 12.99 19 13ZM10 20C8.34 20 7 18.66 7 17C7 15.69 7.84 14.59 9 14.17V12.1C6.72 12.56 5 14.58 5 17C5 19.76 7.24 22 10 22C12.42 22 14.44 20.28 14.9 18H12.83C12.42 19.16 11.31 20 10 20Z" fill="black"></path>
      </g>
    </g>
  </symbol>
  <symbol fill="none" xmlns="http://www.w3.org/2000/svg" viewBox="0 0 24 24" id="account_balance_wallet">
    <g id="account_balance_wallet">
      <g id="Vector">
        <path d="M20.5 7.28V5C20.5 3.9 19.6 3 18.5 3H4.5C3.39 3 2.5 3.9 2.5 5V19C2.5 20.1 3.39 21 4.5 21H18.5C19.6 21 20.5 20.1 20.5 19V16.72C21.09 16.37 21.5 15.74 21.5 15V9C21.5 8.26 21.09 7.63 20.5 7.28ZM19.5 9V15H12.5V9H19.5ZM4.5 19V5H18.5V7H12.5C11.4 7 10.5 7.9 10.5 9V15C10.5 16.1 11.4 17 12.5 17H18.5V19H4.5Z" fill="black"></path>
        <path d="M15.5 13.5C16.3284 13.5 17 12.8284 17 12C17 11.1716 16.3284 10.5 15.5 10.5C14.6716 10.5 14 11.1716 14 12C14 12.8284 14.6716 13.5 15.5 13.5Z" fill="black"></path>
      </g>
    </g>
  </symbol>
</svg>
